# AST/ASF file generated using VICON BodyLanguage
# -----------------------------------------------
:version 1.10
:name VICON
:units
  mass 1.0
  length 0.45
  angle deg
:documentation
   .ast/.asf automatically generated from VICON data using
   VICON BodyBuilder and BodyLanguage model FoxedUp or BRILLIANT.MOD
:root
   order TX TY TZ RX RY RZ
   axis XYZ
   position 0 0 0  
   orientation 0 0 0 
:bonedata
  begin
     id 1 
     name lhipjoint
     direction 0.643272 -0.706573 0.294883 
     length 2.58915 
     axis 0 0 0  XYZ
  end
  begin
     id 2 
     name lfemur
     direction 0.34202 -0.939693 0  
     length 7.06802  
     axis 0 0 20  XYZ
    dof rx ry rz
    limits (-160.0 20.0)
           (-70.0 70.0)
           (-60.0 70.0)
  end
  begin
     id 3 
     name ltibia
     direction 0.34202 -0.939693 0   
     length 7.94147   
     axis 0 0 20   XYZ
    dof rx
    limits (-10.0 170.0)
  end
  begin
     id 4 
     name lfoot
     direction 0.0435058 -0.119531 0.991877   
     length 1.8399   
     axis -90 7.62852e-016 20   XYZ
    dof rx rz
    limits (-45.0 90.0)
           (-70.0 20.0)
  end
  begin
     id 5 
     name ltoes
     direction 1.53505e-011 -4.22157e-011 1   
     length 0.934412   
     axis -90 7.62852e-016 20   XYZ
    dof rx
    limits (-90.0 20.0)
  end
  begin
     id 6 
     name rhipjoint
     direction -0.636801 -0.711547 0.296959   
     length 2.57105  
     axis 0 0 0  XYZ 
  end
  begin
     id 7 
     name rfemur
     direction -0.34202 -0.939693 0   
     length 7.03285   
     axis 0 0 -20   XYZ
    dof rx ry rz
    limits (-160.0 20.0)
           (-70.0 70.0)
           (-70.0 60.0)
  end
  begin
     id 8 
     name rtibia
     direction -0.34202 -0.939693 0   
     length 7.99111   
     axis 0 0 -20   XYZ
    dof rx
    limits (-10.0 170.0)
 end
 begin
     id 9 
     name rfoot
     direction -0.0783088 -0.215152 0.973436   
     length 1.98785  
     axis -90 -7.62852e-016 -20   XYZ
    dof rx rz
    limits (-45.0 90.0)
           (-20.0 70.0)
  end
  begin
     id 10 
     name rtoes
     direction -1.53606e-011 -4.21943e-011 1   
     length 1.001   
     axis -90 -7.62852e-016 -20   XYZ
    dof rx
    limits (-90.0 20.0)
  end
  begin
     id 11 
     name lowerback
     direction 0.00141527 0.998403 -0.0564763   
     length 2.30486   
     axis 0 0 0   XYZ
    dof rx ry rz
    limits (-20.0 45.0)
           (-30.0 30.0)
           (-30.0 30.0)
  end
  begin
     id 12 
     name upperback
     direction 0.0125137 0.999915 0.00361315   
     length 2.30697   
     axis 0 0 0   XYZ
    dof rx ry rz
    limits (-20.0 45.0)
           (-30.0 30.0)
           (-30.0 30.0)
  end
  begin
     id 13 
     name thorax
     direction 0.0136417 0.999471 0.0295116   
     length 2.31005   
     axis 0 0 0   XYZ
    dof rx ry rz
    limits (-20.0 45.0)
           (-30.0 30.0)
           (-30.0 30.0)
  end
  begin
     id 14 
     name lowerneck
     direction 0.0766806 0.997047 0.00422047   
     length 1.68825   
     axis 0 0 0   XYZ
    dof rx ry rz
    limits (-20.0 45.0)
           (-30.0 30.0)
           (-30.0 30.0)
  end
  begin
     id 15 
     name upperneck
     direction -0.143512 0.985106 -0.0947088   
     length 1.69772   
     axis 0 0 0   XYZ
    dof rx ry rz
    limits (-20.0 45.0)
           (-30.0 30.0)
           (-30.0 30.0)
  end
  begin
     id 16
     name head
     direction -0.0539128 0.997849 -0.0372864  
     length 1.71187  
     axis 0 0 0   XYZ
    dof rx ry rz
    limits (-20.0 45.0)
           (-30.0 30.0)
           (-30.0 30.0)
  end
  begin
     id 17 
     name lclavicle
     direction 0.978251 0.207416 -0.00165765  
     length 3.35399  
     axis 0 0 0   XYZ
    dof ry rz
    limits (-20.0 10.0)
           (0.0 20.0)
  end
  begin
     id 18 
     name lhumerus
     direction 1 -4.48966e-011 -1.32191e-028   
     length 5.70706   
     axis 180 -30 -90   XYZ
    dof rx ry rz
    limits (-60.0 90.0)
           (-90.0 90.0)
           (-90.0 90.0)
  end
  begin
     id 19
     name lradius
     direction 1 -4.48976e-011 9.36106e-027   
     length 3.33243   
     axis 180 -30 -90   XYZ
    dof rx
    limits (-10.0 170.0)
  end
  begin
     id 20
     name lwrist
     direction 1 -4.48976e-011 1.1555e-026   
     length 1.66621   
     axis -5.7412e-015 90 90   XYZ
    dof ry
    limits (-180.0 0.0)
 end
  begin
     id 21 
     name lhand
     direction 1 -4.48939e-011 2.31113e-026   
     length 0.792687   
     axis -1.47463e-014 90 90   XYZ
    dof rx rz
    limits (-90.0 90.0)
           (-45.0 45.0)
  end
  begin
     id 22 
     name lfingers
     direction 1 -4.48866e-011 4.62274e-026   
     length 0.639085   
     axis -2.94925e-014 90 90   XYZ
    dof rx
    limits (0.0 90.0)
  end
  begin
     id 23
     name lthumb
     direction 0.707107 -6.34847e-011 0.707107   
     length 0.917601   
     axis -90 45 -6.68868e-015   XYZ
    dof rx rz
    limits (-45.0 45.0)
           (-45.0 45.0)
  end
  begin
     id 24 
     name rclavicle
     direction -0.981813 0.185514 0.0403428   
     length 3.47271  
     axis 0 0 0   XYZ 
    dof ry rz
    limits (-10.0 20.0)
           (-20.0 0.0)
  end
  begin
     id 25 
     name rhumerus
     direction -1 -4.48972e-011 -6.58544e-029  
     length 5.88176   
     axis 180 30 90   XYZ
    dof rx ry rz
    limits (-90.0 60.0)
           (-90.0 90.0)
           (-90.0 90.0)
  end
  begin
     id 26 
     name rradius
     direction -1 -4.48964e-011 8.36306e-027   
     length 3.28156   
     axis 180 30 90   XYZ
    dof rx
    limits (-10.0 170.0)
  end
  begin
     id 27 
     name rwrist
     direction -1 -4.48903e-011 1.15562e-026   
     length 1.64078   
     axis -5.7412e-015 -90 -90   XYZ
    dof ry
    limits (-180.0 0.0)
  end
  begin
     id 28
     name rhand
     direction -1 -4.49055e-011 2.31074e-026   
     length 0.863125   
     axis -1.47463e-014 -90 -90   XYZ
    dof rx rz
    limits (-90.0 90.0)
           (-45.0 45.0)
  end
  begin
     id 29
     name rfingers
     direction -1 -4.48994e-011 4.62188e-026   
     length 0.695873   
     axis -2.94925e-014 -90 -90   XYZ
    dof rx
    limits (0.0 90.0)
  end
  begin
     id 30
     name rthumb
     direction -0.707107 -6.35058e-011 0.707107   
     length 0.999139   
     axis -90 -45 6.68868e-015   XYZ
    dof rx rz
    limits (-45.0 45.0)
           (-45.0 45.0)
  end
:hierarchy
  begin
    root lhipjoint rhipjoint lowerback
    lhipjoint lfemur
    lfemur ltibia
    ltibia lfoot
    lfoot ltoes
    rhipjoint rfemur
    rfemur rtibia
    rtibia rfoot
    rfoot rtoes
    lowerback upperback
    upperback thorax
    thorax lowerneck lclavicle rclavicle
    lowerneck upperneck
    upperneck head
    lclavicle lhumerus
    lhumerus lradius
    lradius lwrist
    lwrist lhand lthumb
    lhand lfingers
    rclavicle rhumerus
    rhumerus rradius
    rradius rwrist
    rwrist rhand rthumb
    rhand rfingers
  end

#!OML:ASF \\Waltz\H\Terrain\Patient Classification 1\Animal2\Wednesday\Animal2.ASF
:FULLY-SPECIFIED
:DEGREES
2044
root -1.16903 16.9255 13.3229 2.51952 -2.20354 1.14744
lowerback 8.07472 -3.86994 -0.778676
upperback -3.23102 -5.25467 0.239734
thorax -7.83724 -2.52216 1.45712
lowerneck 4.17489 1.66356 13.4267
upperneck -5.5512 2.11593 -17.1369
head -1.95323 1.29074 -7.5834
rclavicle 3.4712e-014 1.25234e-014
rhumerus 34.7509 45.3988 -32.3072
rradius 83.7215
rwrist -24.7874
rhand -21.2654 19.9289
rfingers 7.12502
rthumb 5.11805 -9.98926
lclavicle 3.4712e-014 1.25234e-014
lhumerus 30.2605 15.1333 15.9454
lradius 60.9071
lwrist -3.65699
lhand -49.4348 25.4051
lfingers 7.12502
lthumb -22.0465 54.1684
rfemur -19.6802 13.2595 3.17986
rtibia 58.1693
rfoot -16.8501 -16.9517
rtoes 32.1837
lfemur -19.7497 0.881106 -22.5979
ltibia 46.4075
lfoot -26.2905 -10.2874
ltoes 0.638969
2045
root -1.13344 16.9253 13.3425 2.37968 -2.26433 2.10105
lowerback 8.1243 -3.87388 -1.15278
upperback -3.11319 -5.33735 -0.253591
thorax -7.75184 -2.55917 1.15779
lowerneck 4.42883 2.4046 14.0118
upperneck -6.12971 3.11879 -17.5443
head -1.98222 1.80592 -7.84741
rclavicle -3.42187e-014 5.2181e-015
rhumerus 34.9984 45.255 -32.347
rradius 83.8491
rwrist -24.7685
rhand -20.6449 20.3159
rfingers 7.12502
rthumb 5.71718 -9.58701
lclavicle -3.42187e-014 5.2181e-015
lhumerus 30.4811 15.4335 15.7813
lradius 60.7129
lwrist -3.55614
lhand -48.9066 25.8361
lfingers 7.12502
lthumb -21.5393 54.6584
rfemur -20.5893 13.2487 2.80478
rtibia 59.992
rfoot -16.591 -16.2253
rtoes 28.1109
lfemur -19.2692 1.51259 -23.7561
ltibia 45.7935
lfoot -25.722 -11.0521
ltoes 1.01687
2046
root -1.09524 16.9329 13.3655 2.2349 -2.31926 3.10389
lowerback 8.16479 -3.86201 -1.60013
upperback -2.99718 -5.40419 -0.71701
thorax -7.65469 -2.58453 0.92768
lowerneck 4.80516 3.08207 14.4369
upperneck -6.75726 4.03261 -17.996
head -2.0526 2.28701 -8.10024
rclavicle 5.97675e-014 -5.19325e-015
rhumerus 35.1337 45.0891 -32.3819
rradius 84.0035
rwrist -24.678
rhand -20.3995 20.3391
rfingers 7.12502
rthumb 5.95416 -9.55721
lclavicle 5.97675e-014 -5.19325e-015
lhumerus 30.7855 15.8566 15.9332
lradius 60.5293
lwrist -3.85772
lhand -48.8133 25.1597
lfingers 7.12502
lthumb -21.4497 53.9922
rfemur -21.301 13.747 2.54052
rtibia 61.6637
rfoot -17.5189 -15.8953
rtoes 25.4948
lfemur -18.7897 2.11304 -24.9963
ltibia 45.2581
lfoot -25.116 -11.698
ltoes 2.51178
2047
root -1.06288 16.9363 13.3832 2.18393 -2.35012 4.07643
lowerback 8.33974 -3.83017 -2.07078
upperback -3.14044 -5.45682 -1.1411
thorax -7.90884 -2.59302 0.77124
lowerneck 5.65884 3.56325 14.6747
upperneck -7.38905 4.72987 -18.3025
head -2.24504 2.68082 -8.28725
rclavicle 1.95507e-014 -1.41634e-015
rhumerus 35.0323 45.2668 -32.4817
rradius 84.1374
rwrist -24.5472
rhand -20.2751 20.1466
rfingers 7.12502
rthumb 6.0742 -9.74632
lclavicle 1.95507e-014 -1.41634e-015
lhumerus 30.8849 15.831 16.1232
lradius 60.5769
lwrist -3.8339
lhand -48.8411 25.6448
lfingers 7.12502
lthumb -21.4764 54.4743
rfemur -22.0762 14.3003 2.36266
rtibia 63.1633
rfoot -18.6829 -15.4809
rtoes 25.4402
lfemur -18.451 2.61017 -26.1736
ltibia 44.709
lfoot -24.4915 -12.288
ltoes 3.68611
2048
root -1.03978 16.902 13.3933 2.13263 -2.30555 5.02957
lowerback 8.40788 -3.82068 -2.52305
upperback -3.22372 -5.53612 -1.57447
thorax -8.03988 -2.61819 0.587112
lowerneck 6.47086 4.00857 14.7589
upperneck -8.09245 5.36882 -18.3787
head -2.46988 3.03942 -8.37642
rclavicle 5.29173e-014 2.38759e-014
rhumerus 34.856 45.3614 -32.7036
rradius 84.2426
rwrist -24.5506
rhand -20.3515 20.0035
rfingers 7.12502
rthumb 6.00043 -9.89148
lclavicle 5.29173e-014 2.38759e-014
lhumerus 31.0224 15.8166 16.2478
lradius 60.5301
lwrist -3.62404
lhand -48.8086 26.0737
lfingers 7.12502
lthumb -21.4452 54.9067
rfemur -22.9428 14.4655 2.1622
rtibia 64.6624
rfoot -19.7533 -14.7181
rtoes 25.741
lfemur -18.2469 3.0523 -27.3033
ltibia 44.2823
lfoot -23.9821 -12.9979
ltoes 4.5745
2049
root -1.0149 16.9076 13.4079 2.06498 -2.20817 6.01865
lowerback 8.52984 -3.81505 -3.04477
upperback -3.23756 -5.63178 -2.02669
thorax -8.12328 -2.64913 0.424305
lowerneck 6.76286 4.58899 14.9085
upperneck -8.51397 6.1739 -18.3996
head -2.49419 3.45145 -8.43288
rclavicle -1.76649e-014 -7.60351e-015
rhumerus 34.6368 45.3446 -32.9689
rradius 84.3163
rwrist -24.6377
rhand -20.4709 20.2433
rfingers 7.12502
rthumb 5.88519 -9.65499
lclavicle -1.76649e-014 -7.60351e-015
lhumerus 31.3759 15.9754 16.418
lradius 60.1758
lwrist -3.66727
lhand -48.8735 25.0333
lfingers 7.12502
lthumb -21.5076 53.8592
rfemur -23.5831 14.4129 1.95747
rtibia 65.8402
rfoot -20.6576 -14.1772
rtoes 24.3393
lfemur -17.9415 3.48097 -28.4764
ltibia 43.7684
lfoot -23.4903 -13.6922
ltoes 6.34447
2050
root -0.989769 16.9114 13.4272 1.97571 -2.13831 6.99866
lowerback 8.73404 -3.8153 -3.51039
upperback -3.31373 -5.74274 -2.51762
thorax -8.33227 -2.68807 0.199877
lowerneck 7.13521 5.14595 15.1295
upperneck -8.86779 6.97353 -18.4201
head -2.51 3.86079 -8.50108
rclavicle 2.10541e-014 2.18663e-015
rhumerus 34.529 45.5232 -33.1219
rradius 84.3947
rwrist -24.6924
rhand -20.4889 20.5699
rfingers 7.12502
rthumb 5.86784 -9.3288
lclavicle 2.10541e-014 2.18663e-015
lhumerus 31.6329 15.9783 16.4397
lradius 59.9308
lwrist -3.53479
lhand -48.5405 25.7026
lfingers 7.12502
lthumb -21.1877 54.5647
rfemur -24.1307 14.2456 1.7774
rtibia 66.8159
rfoot -21.3776 -14.0776
rtoes 23.6429
lfemur -17.5958 4.05058 -29.6071
ltibia 43.2569
lfoot -22.8889 -14.4285
ltoes 8.09593
